<svg width="64" height="64" viewBox="0 0 64 64" fill="none" xmlns="http://www.w3.org/2000/svg">
    <!-- Background Circle -->
    <circle cx="32" cy="32" r="30" fill="#1F2937"/>
    <circle cx="32" cy="32" r="29.5" stroke="#4ADE80" stroke-opacity="0.5"/>

    <!-- Magnifying Glass Icon -->
    <g transform="translate(16, 16) scale(0.6)">
        <path d="M40.33,36.33,32.89,28.89a16.5,16.5,0,1,0-4,4l7.44,7.44a2.83,2.83,0,0,0,4-4ZM19.5,32.5a13,13,0,1,1,13-13A13,13,0,0,1,19.5,32.5Z" fill="#4ADE80"/>
    </g>
    
    <!-- Map Pin Icon (Subtly in the background) -->
    <g transform="translate(28, 28) scale(0.5)" opacity="0.2">
         <path d="M32,2A20,20,0,0,0,12,22c0,15,20,38,20,38S52,37,52,22A20,20,0,0,0,32,2Zm0,28a8,8,0,1,1,8-8A8,8,0,0,1,32,30Z" fill="#4ADE80"/>
    </g>
</svg>
